<svg width="133" height="123" viewBox="0 0 133 123" fill="none" xmlns="http://www.w3.org/2000/svg">
<path d="M131.618 51.6262H132.118V51.1262V36.0462V35.5462H131.618H109.741L120.642 8.67415L120.831 8.20676L120.362 8.02124L102.942 1.13124L102.481 0.948643L102.295 1.40899L88.511 35.5462H66.8407L77.7416 8.67415L77.9312 8.20676L77.4622 8.02124L60.0422 1.13124L59.5805 0.948643L59.3947 1.40899L45.611 35.5462H16.1783H15.6783V36.0462V51.1262V51.6262H16.1783H39.0983L29.8805 74.5462H1.74829H1.24829V75.0462V90.1262V90.6262H1.74829H23.3683L13.7644 114.51L13.5768 114.976L14.0444 115.161L31.4644 122.051L31.9256 122.234L32.1117 121.774L44.7253 90.6262H66.2683L56.6644 114.51L56.4768 114.976L56.9444 115.161L74.3644 122.051L74.8256 122.234L75.0117 121.774L87.6253 90.6262H117.188H117.688V90.1262V75.0462V74.5462H117.188H94.012L103.354 51.6262H131.618ZM51.112 74.5462L60.4544 51.6262H81.9983L72.7805 74.5462H51.112Z" stroke="#EBEBEB"/>
</svg>
