<svg width="62" height="107" viewBox="0 0 62 107" fill="none" xmlns="http://www.w3.org/2000/svg">
<path d="M28.1749 10.8264L22.8828 5.49317C19.9724 2.55988 17.4955 0.159912 17.3796 0.159912C17.2638 0.159912 17.1686 2.55988 17.1686 5.49317V10.8264H22.6718H28.1749Z" fill="#EBEBEB"/>
<path d="M44.2371 28.5762C43.0082 22.0255 37.6437 15.7612 31.7528 13.9967C27.9425 12.8546 15.2517 12.9567 11.9397 14.1551C8.06017 15.5593 3.82099 19.5006 1.8195 23.5645C0.108285 27.0395 0.026001 27.9439 0.026001 43.2069C0.026001 57.8733 0.159333 59.4924 1.62826 62.6352C2.50977 64.5209 4.21946 67.0412 5.42782 68.2358C7.61446 70.3973 12.5812 73.3017 14.0905 73.3017C14.5652 73.3017 14.8829 71.1089 14.8829 67.8267C14.8829 63.1974 14.6185 62.0714 13.1687 60.5293C11.5321 58.7891 11.4437 58.0402 11.219 43.9711L10.9843 29.236L13.1862 26.7713C15.0582 24.6761 16.0319 24.2525 19.6722 23.9508C22.028 23.7557 25.2081 23.8312 26.7395 24.1184C29.7977 24.6921 33.1684 27.7679 33.1684 29.985C33.1684 31.2368 33.8282 31.3975 38.9671 31.3975H44.7667L44.2371 28.5762Z" fill="#EBEBEB"/>
<path d="M27.8351 34.407V30.2357V26.0643H22.5019H17.1686L17.1076 35.0165C16.9157 63.1251 17.3347 80.6052 18.2535 82.7971C19.7072 86.2653 23.0969 89.9475 26.3768 91.6206C31.2735 94.1189 31.6446 93.8423 31.6446 87.6969C31.6446 83.0341 31.3802 81.9697 29.7398 80.02C27.8625 77.7892 27.8351 77.5576 27.8351 64.063C27.8351 45.2724 28.3707 44.3497 39.2719 44.3497C45.1133 44.3497 45.6063 44.48 47.703 46.5767L49.93 48.8037V62.9955C49.93 74.2259 49.6877 77.6559 48.7674 79.4349C48.1281 80.6707 47.271 81.6825 46.8626 81.6825C46.4466 81.6825 46.1205 84.1952 46.1205 87.3967C46.1205 91.853 46.3613 93.1109 47.2139 93.1109C51.754 93.1109 58.579 86.9548 60.2407 81.361C61.523 77.0426 61.8049 52.1446 60.6285 47.0727C59.6373 42.7993 56.1844 38.2729 51.8896 35.6177C48.4123 33.4676 47.7022 33.3244 40.4848 33.3137C36.251 33.3076 31.6735 33.5506 30.3113 33.8546L27.8351 34.407Z" fill="#EBEBEB"/>
<path d="M44.0444 106.063C44.3484 106.063 44.5968 92.6919 44.5968 76.3492V46.6354H38.8826H33.1684L33.1653 51.7782C33.1638 55.5732 32.7638 57.5747 31.6415 59.4154C30.4766 61.3262 30.1208 63.2546 30.1208 67.6576C30.1208 73.0579 30.213 73.3748 31.6446 72.9207C33.1234 72.4514 33.1684 72.7836 33.1684 84.1274V95.8187L38.3302 100.941C41.169 103.758 43.7404 106.063 44.0444 106.063Z" fill="#EBEBEB"/>
</svg>
