<svg width="649" height="218" viewBox="0 0 649 218" fill="none" xmlns="http://www.w3.org/2000/svg">
<path d="M31.0021 173.017V178.393H19.7221V206.857H13.5301V178.393H2.15412V173.017H31.0021ZM34.9066 206.857V173.017H45.6586C50.3946 173.017 53.8346 173.609 55.9786 174.793C58.1546 175.945 59.2426 178.121 59.2426 181.321C59.2426 182.697 59.0186 183.849 58.5706 184.777C58.1546 185.705 57.5466 186.409 56.7466 186.889C55.9466 187.337 55.1626 187.657 54.3946 187.849C53.6266 188.041 52.7146 188.169 51.6586 188.233V189.865C53.0986 189.897 54.3466 190.025 55.4026 190.249C56.4906 190.473 57.5466 190.857 58.5706 191.401C59.5946 191.945 60.3786 192.761 60.9226 193.849C61.4666 194.937 61.7386 196.281 61.7386 197.881C61.7386 199.673 61.3706 201.177 60.6346 202.393C59.9306 203.577 58.8746 204.489 57.4666 205.129C56.0586 205.769 54.5066 206.217 52.8106 206.473C51.1466 206.729 49.1626 206.857 46.8586 206.857H34.9066ZM41.0986 186.553H46.2826C48.6506 186.553 50.3626 186.313 51.4186 185.833C52.5066 185.321 53.0506 184.201 53.0506 182.473C53.0506 181.705 52.9386 181.065 52.7146 180.553C52.4906 180.009 52.2026 179.609 51.8506 179.353C51.5306 179.065 51.0346 178.857 50.3626 178.729C49.7226 178.569 49.1306 178.473 48.5866 178.441C48.0426 178.409 47.2746 178.393 46.2826 178.393H41.0986V186.553ZM41.0986 201.481H47.4826C50.3626 201.481 52.4266 201.193 53.6746 200.617C54.9226 200.041 55.5466 198.745 55.5466 196.729C55.5466 194.745 54.9066 193.449 53.6266 192.841C52.3786 192.233 50.3306 191.929 47.4826 191.929H41.0986V201.481ZM68.798 202.441C65.79 199.145 64.286 194.969 64.286 189.913C64.286 184.857 65.79 180.697 68.798 177.433C71.838 174.169 75.902 172.537 80.99 172.537C86.078 172.537 90.126 174.185 93.134 177.481C96.142 180.745 97.646 184.889 97.646 189.913C97.646 194.969 96.142 199.145 93.134 202.441C90.126 205.705 86.078 207.337 80.99 207.337C75.902 207.337 71.838 205.705 68.798 202.441ZM73.166 181.177C71.374 183.321 70.478 186.233 70.478 189.913C70.478 193.593 71.374 196.521 73.166 198.697C74.958 200.873 77.566 201.961 80.99 201.961C84.414 201.961 87.006 200.873 88.766 198.697C90.558 196.521 91.454 193.593 91.454 189.913C91.454 186.233 90.558 183.321 88.766 181.177C86.974 179.001 84.382 177.913 80.99 177.913C77.566 177.913 74.958 179.001 73.166 181.177ZM113.541 173.017C115.365 173.017 116.965 173.113 118.341 173.305C119.749 173.465 121.093 173.801 122.373 174.313C123.653 174.793 124.693 175.465 125.493 176.329C126.325 177.161 126.981 178.265 127.461 179.641C127.941 181.017 128.181 182.649 128.181 184.537C128.181 186.905 127.829 188.873 127.125 190.441C126.453 192.009 125.413 193.209 124.005 194.041C122.629 194.841 121.125 195.401 119.493 195.721C117.861 196.009 115.877 196.153 113.541 196.153H108.645V206.857H102.453V173.017H113.541ZM113.877 190.777C116.725 190.777 118.789 190.377 120.069 189.577C121.349 188.777 121.989 187.097 121.989 184.537C121.989 182.009 121.349 180.361 120.069 179.593C118.789 178.793 116.725 178.393 113.877 178.393H108.645V190.777H113.877ZM156.045 173.017H162.237V206.857H156.045V195.241L137.325 196.201C136.077 196.265 135.117 195.993 134.445 195.385C133.805 194.745 133.485 193.801 133.485 192.553V173.017H139.677V190.681L156.045 189.865V173.017ZM168.453 206.857V173.017H191.349V178.393H174.645V187.225H188.949V192.601H174.645V201.481H191.349V206.857H168.453ZM193.755 189.913C193.755 184.889 195.275 180.745 198.315 177.481C201.355 174.185 205.419 172.537 210.507 172.537C215.083 172.537 218.795 173.753 221.643 176.185C224.491 178.585 226.171 181.881 226.683 186.073H220.491C220.107 183.449 219.035 181.433 217.275 180.025C215.547 178.617 213.323 177.913 210.603 177.913C207.243 177.913 204.619 178.985 202.731 181.129C200.875 183.241 199.947 186.169 199.947 189.913C199.947 193.657 200.875 196.601 202.731 198.745C204.619 200.889 207.243 201.961 210.603 201.961C213.323 201.961 215.547 201.257 217.275 199.849C219.035 198.409 220.107 196.377 220.491 193.753H226.683C226.171 197.977 224.491 201.305 221.643 203.737C218.795 206.137 215.083 207.337 210.507 207.337C205.419 207.337 201.355 205.705 198.315 202.441C195.275 199.145 193.755 194.969 193.755 189.913ZM256.002 173.017V178.393H244.722V206.857H238.53V178.393H227.154V173.017H256.002ZM259.907 206.857V173.017H270.659C275.395 173.017 278.835 173.609 280.979 174.793C283.155 175.945 284.243 178.121 284.243 181.321C284.243 182.697 284.019 183.849 283.571 184.777C283.155 185.705 282.547 186.409 281.747 186.889C280.947 187.337 280.163 187.657 279.395 187.849C278.627 188.041 277.715 188.169 276.659 188.233V189.865C278.099 189.897 279.347 190.025 280.403 190.249C281.491 190.473 282.547 190.857 283.571 191.401C284.595 191.945 285.379 192.761 285.923 193.849C286.467 194.937 286.739 196.281 286.739 197.881C286.739 199.673 286.371 201.177 285.635 202.393C284.931 203.577 283.875 204.489 282.467 205.129C281.059 205.769 279.507 206.217 277.811 206.473C276.147 206.729 274.163 206.857 271.859 206.857H259.907ZM266.099 186.553H271.283C273.651 186.553 275.363 186.313 276.419 185.833C277.507 185.321 278.051 184.201 278.051 182.473C278.051 181.705 277.939 181.065 277.715 180.553C277.491 180.009 277.203 179.609 276.851 179.353C276.531 179.065 276.035 178.857 275.363 178.729C274.723 178.569 274.131 178.473 273.587 178.441C273.043 178.409 272.275 178.393 271.283 178.393H266.099V186.553ZM266.099 201.481H272.483C275.363 201.481 277.427 201.193 278.675 200.617C279.923 200.041 280.547 198.745 280.547 196.729C280.547 194.745 279.907 193.449 278.627 192.841C277.379 192.233 275.331 191.929 272.483 191.929H266.099V201.481ZM293.798 202.441C290.79 199.145 289.286 194.969 289.286 189.913C289.286 184.857 290.79 180.697 293.798 177.433C296.838 174.169 300.902 172.537 305.99 172.537C311.078 172.537 315.126 174.185 318.134 177.481C321.142 180.745 322.646 184.889 322.646 189.913C322.646 194.969 321.142 199.145 318.134 202.441C315.126 205.705 311.078 207.337 305.99 207.337C300.902 207.337 296.838 205.705 293.798 202.441ZM298.166 181.177C296.374 183.321 295.478 186.233 295.478 189.913C295.478 193.593 296.374 196.521 298.166 198.697C299.958 200.873 302.566 201.961 305.99 201.961C309.414 201.961 312.006 200.873 313.766 198.697C315.558 196.521 316.454 193.593 316.454 189.913C316.454 186.233 315.558 183.321 313.766 181.177C311.974 179.001 309.382 177.913 305.99 177.913C302.566 177.913 299.958 179.001 298.166 181.177ZM342.828 206.857V173.017H353.58C358.316 173.017 361.756 173.609 363.9 174.793C366.076 175.945 367.164 178.121 367.164 181.321C367.164 182.697 366.94 183.849 366.492 184.777C366.076 185.705 365.468 186.409 364.668 186.889C363.868 187.337 363.084 187.657 362.316 187.849C361.548 188.041 360.636 188.169 359.58 188.233V189.865C361.02 189.897 362.268 190.025 363.324 190.249C364.412 190.473 365.468 190.857 366.492 191.401C367.516 191.945 368.3 192.761 368.844 193.849C369.388 194.937 369.66 196.281 369.66 197.881C369.66 199.673 369.292 201.177 368.556 202.393C367.852 203.577 366.796 204.489 365.388 205.129C363.98 205.769 362.428 206.217 360.732 206.473C359.068 206.729 357.084 206.857 354.78 206.857H342.828ZM349.02 186.553H354.204C356.572 186.553 358.284 186.313 359.34 185.833C360.428 185.321 360.972 184.201 360.972 182.473C360.972 181.705 360.86 181.065 360.636 180.553C360.412 180.009 360.124 179.609 359.772 179.353C359.452 179.065 358.956 178.857 358.284 178.729C357.644 178.569 357.052 178.473 356.508 178.441C355.964 178.409 355.196 178.393 354.204 178.393H349.02V186.553ZM349.02 201.481H355.404C358.284 201.481 360.348 201.193 361.596 200.617C362.844 200.041 363.468 198.745 363.468 196.729C363.468 194.745 362.828 193.449 361.548 192.841C360.3 192.233 358.252 191.929 355.404 191.929H349.02V201.481ZM389.844 206.857V173.017H412.74V178.393H396.036V187.225H410.34V192.601H396.036V201.481H412.74V206.857H389.844ZM446.672 201.481H449.84V213.433H443.648V206.857H422.288V213.433H416.096V201.481H419.264C422.4 195.945 423.968 186.457 423.968 173.017H446.672V201.481ZM425.456 201.481H440.48V178.393H430.016C429.696 189.017 428.176 196.713 425.456 201.481ZM485.512 206.857H479.32V178.633L480.424 174.601H478.84L465.976 206.857H453.736V173.017H459.88V201.241L458.776 205.273H460.36L473.272 173.017H485.512V206.857ZM515.337 173.017H521.481V206.857H515.337V192.985H497.145V206.857H490.953V173.017H497.145V187.609H515.337V173.017ZM525.958 189.913C525.958 184.889 527.478 180.745 530.518 177.481C533.558 174.185 537.622 172.537 542.71 172.537C547.286 172.537 550.998 173.753 553.846 176.185C556.694 178.585 558.374 181.881 558.886 186.073H552.694C552.31 183.449 551.238 181.433 549.478 180.025C547.75 178.617 545.526 177.913 542.806 177.913C539.446 177.913 536.822 178.985 534.934 181.129C533.078 183.241 532.15 186.169 532.15 189.913C532.15 193.657 533.078 196.601 534.934 198.745C536.822 200.889 539.446 201.961 542.806 201.961C545.526 201.961 547.75 201.257 549.478 199.849C551.238 198.409 552.31 196.377 552.694 193.753H558.886C558.374 197.977 556.694 201.305 553.846 203.737C550.998 206.137 547.286 207.337 542.71 207.337C537.622 207.337 533.558 205.705 530.518 202.441C527.478 199.145 525.958 194.969 525.958 189.913ZM588.205 173.017V178.393H576.925V206.857H570.733V178.393H559.357V173.017H588.205ZM592.11 206.857V173.017H602.862C607.598 173.017 611.038 173.609 613.182 174.793C615.358 175.945 616.446 178.121 616.446 181.321C616.446 182.697 616.222 183.849 615.774 184.777C615.358 185.705 614.75 186.409 613.95 186.889C613.15 187.337 612.366 187.657 611.598 187.849C610.83 188.041 609.918 188.169 608.862 188.233V189.865C610.302 189.897 611.55 190.025 612.606 190.249C613.694 190.473 614.75 190.857 615.774 191.401C616.798 191.945 617.582 192.761 618.126 193.849C618.67 194.937 618.942 196.281 618.942 197.881C618.942 199.673 618.574 201.177 617.838 202.393C617.134 203.577 616.078 204.489 614.67 205.129C613.262 205.769 611.71 206.217 610.014 206.473C608.35 206.729 606.366 206.857 604.062 206.857H592.11ZM598.302 186.553H603.486C605.854 186.553 607.566 186.313 608.622 185.833C609.71 185.321 610.254 184.201 610.254 182.473C610.254 181.705 610.142 181.065 609.918 180.553C609.694 180.009 609.406 179.609 609.054 179.353C608.734 179.065 608.238 178.857 607.566 178.729C606.926 178.569 606.334 178.473 605.79 178.441C605.246 178.409 604.478 178.393 603.486 178.393H598.302V186.553ZM598.302 201.481H604.686C607.566 201.481 609.63 201.193 610.878 200.617C612.126 200.041 612.75 198.745 612.75 196.729C612.75 194.745 612.11 193.449 610.83 192.841C609.582 192.233 607.534 191.929 604.686 191.929H598.302V201.481ZM623.375 206.857V173.017H646.271V178.393H629.567V187.225H643.871V192.601H629.567V201.481H646.271V206.857H623.375Z" fill="#EBEBEB"/>
<path fill-rule="evenodd" clip-rule="evenodd" d="M128.167 6.28254C162.949 23.2985 174.903 64.5718 154.747 98.0446C148.042 109.177 147.92 111.793 153.748 119.346L157.195 123.812L184.627 62.7058L212.058 1.59963L224.057 2.13031L236.055 2.65909L263.049 62.5137L290.044 122.368L290.546 62.0382L291.048 1.70804H303.385H315.722V54.0152V106.322H334.743H353.763V115.867V125.414L309.867 124.902L265.973 124.392L254.998 98.7141L244.021 73.036L224.024 72.4996L204.028 71.9613L192.728 98.1777L181.427 124.392L157.066 124.927C143.07 125.233 131.743 124.666 130.452 123.593C128.955 122.349 124.797 122.724 118.022 124.71C102.866 129.153 80.0789 127.464 66.2774 120.873C53.8207 114.927 41.3354 102.225 35.4713 89.5385C29.7803 77.2263 29.8469 50.4146 35.5988 37.6516C43.0416 21.1378 57.5335 8.69438 76.6038 2.44225C89.652 -1.83553 115.511 0.089373 128.167 6.28254ZM460.866 62.5137L487.86 122.368L488.362 62.0382L488.864 1.70804L525.453 1.7499C571.567 1.80316 578.853 4.34432 586.696 23.114C590.521 32.2687 590.329 42.7055 586.167 51.9724C582.863 59.3277 582.876 59.5065 587.082 64.043C602.036 80.1802 599.247 104.942 580.898 118.941L573.754 124.392H518.774H463.795L452.816 98.7141L441.837 73.036L421.841 72.4996L401.844 71.9613L390.549 98.1777L379.255 124.392L367.46 124.959C360.972 125.269 355.66 124.841 355.652 124.008C355.645 123.173 367.841 95.2903 382.757 62.0458L409.875 1.59963L421.873 2.13031L433.871 2.65909L460.866 62.5137ZM82.7171 22.648C74.114 25.3224 62.6882 35.6716 58.7376 44.3698C54.1193 54.5383 54.0946 72.4597 58.6843 82.5635C62.9069 91.859 73.3132 101.316 82.7418 104.428C90.449 106.973 113.065 106.256 115.84 103.38C116.918 102.263 114.389 96.0892 109.253 87.3016L100.916 73.036L112.734 72.4578C125.05 71.8548 126.267 72.492 132.35 82.7499C134.309 86.0538 134.573 85.993 136.875 81.6905C138.22 79.1778 139.72 71.9233 140.209 65.5684C140.982 55.516 140.384 52.6609 135.599 43.5823C128.101 29.3586 116.392 22.0223 100.11 21.3546C93.6826 21.0921 85.8555 21.6742 82.7171 22.648ZM511.636 36.8965V51.1621H536.032C559.072 51.1621 560.656 50.9167 564.563 46.7607C570.056 40.9118 569.938 32.0671 564.297 26.766C560.253 22.9695 557.921 22.6309 535.766 22.6309H511.636V36.8965ZM218.419 38.0454L213.418 50.2111L222.935 50.7931C228.169 51.1126 232.831 50.9966 233.295 50.5325C233.759 50.0684 231.726 44.3317 228.778 37.7848L223.419 25.8797L218.419 38.0454ZM416.235 38.0454L411.235 50.2111L420.751 50.7931C425.985 51.1126 430.647 50.9966 431.111 50.5325C431.576 50.0684 429.542 44.3317 426.594 37.7848L421.236 25.8797L416.235 38.0454ZM511.636 88.2527V104.42H538.109C552.669 104.42 565.969 103.888 567.661 103.239C571.422 101.795 576.307 92.7625 576.307 87.2503C576.307 85.0248 573.805 80.7033 570.747 77.6448L565.187 72.085H538.411H511.636V88.2527Z" fill="#EBEBEB"/>
</svg>
