<svg width="567" height="128" viewBox="0 0 567 128" fill="none" xmlns="http://www.w3.org/2000/svg">
<mask id="path-1-inside-1_1_99" fill="white">
<path fill-rule="evenodd" clip-rule="evenodd" d="M97.7915 6.31233C132.573 23.3283 144.527 64.6016 124.371 98.0743C117.666 109.207 117.544 111.823 123.372 119.376L126.819 123.842L154.251 62.7356L181.683 1.62941L193.681 2.16009L205.679 2.68887L232.673 62.5435L259.668 122.398L260.17 62.068L260.672 1.73783H273.009H285.346V54.045V106.352H304.367H323.387V115.897V125.443L279.491 124.932L235.597 124.422L224.622 98.7439L213.645 73.0658L193.648 72.5294L173.652 71.9911L162.352 98.2075L151.051 124.422L126.69 124.956C112.694 125.263 101.367 124.696 100.076 123.623C98.5788 122.379 94.421 122.754 87.6458 124.74C72.49 129.183 49.703 127.494 35.9015 120.903C23.4448 114.957 10.9596 102.255 5.09546 89.5682C-0.595559 77.2561 -0.528955 50.4444 5.22293 37.6814C12.6658 21.1676 27.1577 8.72417 46.2279 2.47203C59.2762 -1.80574 85.135 0.119158 97.7915 6.31233ZM430.49 62.5435L457.484 122.398L457.986 62.068L458.488 1.73783L495.077 1.77969C541.191 1.83295 548.478 4.3741 556.32 23.1438C560.145 32.2985 559.953 42.7352 555.791 52.0022C552.487 59.3575 552.5 59.5363 556.706 64.0728C571.66 80.21 568.872 104.971 550.522 118.971L543.378 124.422H488.398H433.419L422.44 98.7439L411.461 73.0658L391.465 72.5294L371.468 71.9911L360.174 98.2075L348.879 124.422L337.084 124.989C330.596 125.299 325.284 124.871 325.276 124.038C325.269 123.203 337.465 95.3201 352.381 62.0756L379.499 1.62941L391.497 2.16009L403.495 2.68887L430.49 62.5435ZM52.3412 22.6778C43.7381 25.3522 32.3123 35.7014 28.3617 44.3996C23.7435 54.5681 23.7187 72.4895 28.3084 82.5933C32.531 91.8888 42.9373 101.346 52.366 104.458C60.0732 107.003 82.6889 106.286 85.464 103.41C86.5425 102.293 84.0128 96.119 78.8772 87.3314L70.5403 73.0658L82.358 72.4876C94.6739 71.8846 95.8912 72.5218 101.974 82.7797C103.933 86.0836 104.198 86.0228 106.499 81.7203C107.844 79.2076 109.345 71.9531 109.833 65.5982C110.606 55.5457 110.008 52.6907 105.223 43.6121C97.7248 29.3884 86.0157 22.052 69.7339 21.3844C63.3067 21.1219 55.4797 21.704 52.3412 22.6778ZM481.26 36.9263V51.1919H505.656C528.696 51.1919 530.28 50.9465 534.187 46.7905C539.68 40.9416 539.562 32.0969 533.921 26.7958C529.877 22.9993 527.545 22.6607 505.39 22.6607H481.26V36.9263ZM188.043 38.0751L183.043 50.2408L192.559 50.8229C197.793 51.1424 202.455 51.0264 202.919 50.5623C203.383 50.0982 201.35 44.3615 198.402 37.8146L193.044 25.9095L188.043 38.0751ZM385.859 38.0751L380.859 50.2408L390.375 50.8229C395.609 51.1424 400.271 51.0264 400.736 50.5623C401.2 50.0982 399.166 44.3615 396.218 37.8146L390.86 25.9095L385.859 38.0751ZM481.26 88.2824V104.45H507.733C522.294 104.45 535.593 103.918 537.286 103.269C541.046 101.825 545.931 92.7923 545.931 87.28C545.931 85.0546 543.429 80.7331 540.371 77.6745L534.811 72.1148H508.036H481.26V88.2824Z"/>
</mask>
<path d="M97.7915 6.31233L97.3519 7.21056L97.352 7.21059L97.7915 6.31233ZM124.371 98.0743L125.228 98.5903L125.228 98.5902L124.371 98.0743ZM123.372 119.376L122.581 119.987L122.581 119.987L123.372 119.376ZM126.819 123.842L126.027 124.453L127.047 125.775L127.731 124.251L126.819 123.842ZM154.251 62.7356L153.338 62.3261V62.3261L154.251 62.7356ZM181.683 1.62941L181.727 0.630391L181.048 0.600387L180.77 1.21987L181.683 1.62941ZM193.681 2.16009L193.637 3.15912L193.637 3.15912L193.681 2.16009ZM205.679 2.68887L206.591 2.27775L206.338 1.71693L205.723 1.68984L205.679 2.68887ZM232.673 62.5435L233.585 62.1324L232.673 62.5435ZM259.668 122.398L258.756 122.809L260.668 122.406L259.668 122.398ZM260.17 62.068L259.17 62.0597L260.17 62.068ZM260.672 1.73783V0.737829H259.68L259.672 1.72951L260.672 1.73783ZM285.346 1.73783H286.346V0.737829H285.346V1.73783ZM285.346 106.352H284.346V107.352H285.346V106.352ZM323.387 106.352H324.387V105.352H323.387V106.352ZM323.387 125.443L323.376 126.443L324.387 126.455V125.443H323.387ZM279.491 124.932L279.503 123.932H279.503L279.491 124.932ZM235.597 124.422L234.677 124.815L234.934 125.414L235.585 125.422L235.597 124.422ZM224.622 98.7439L225.542 98.3509L225.541 98.3508L224.622 98.7439ZM213.645 73.0658L214.565 72.6727L214.313 72.0833L213.672 72.0662L213.645 73.0658ZM193.648 72.5294L193.622 73.5291H193.622L193.648 72.5294ZM173.652 71.9911L173.679 70.9915L173.002 70.9733L172.734 71.5953L173.652 71.9911ZM162.352 98.2075L163.27 98.6034L163.27 98.6033L162.352 98.2075ZM151.051 124.422L151.073 125.422L151.716 125.408L151.97 124.818L151.051 124.422ZM126.69 124.956L126.712 125.956L126.712 125.956L126.69 124.956ZM100.076 123.623L99.4366 124.392L99.4368 124.392L100.076 123.623ZM87.6458 124.74L87.3645 123.78L87.3644 123.78L87.6458 124.74ZM35.9015 120.903L36.3325 120.001L36.3323 120.001L35.9015 120.903ZM5.09546 89.5682L6.00319 89.1487L6.00318 89.1487L5.09546 89.5682ZM5.22293 37.6814L4.31125 37.2705L4.31124 37.2705L5.22293 37.6814ZM46.2279 2.47203L45.9164 1.5218L45.9164 1.5218L46.2279 2.47203ZM430.49 62.5435L431.401 62.1324L430.49 62.5435ZM457.484 122.398L456.572 122.809L458.484 122.406L457.484 122.398ZM457.986 62.068L458.986 62.0763L457.986 62.068ZM458.488 1.73783L458.49 0.73783L457.497 0.736694L457.488 1.72951L458.488 1.73783ZM495.077 1.77969L495.078 0.779688H495.078L495.077 1.77969ZM556.32 23.1438L555.397 23.5293L555.397 23.5294L556.32 23.1438ZM555.791 52.0022L556.703 52.4119V52.4119L555.791 52.0022ZM556.706 64.0728L557.439 63.3931L557.439 63.3929L556.706 64.0728ZM550.522 118.971L549.916 118.176L549.916 118.176L550.522 118.971ZM543.378 124.422V125.422H543.716L543.984 125.217L543.378 124.422ZM433.419 124.422L432.499 124.815L432.759 125.422H433.419V124.422ZM411.461 73.0658L412.381 72.6727L412.129 72.0833L411.488 72.0662L411.461 73.0658ZM391.465 72.5294L391.438 73.5291H391.438L391.465 72.5294ZM371.468 71.9911L371.495 70.9915L370.818 70.9733L370.55 71.5955L371.468 71.9911ZM360.174 98.2075L361.092 98.6032V98.6032L360.174 98.2075ZM348.879 124.422L348.927 125.421L349.551 125.391L349.798 124.818L348.879 124.422ZM337.084 124.989L337.132 125.988L337.132 125.988L337.084 124.989ZM325.276 124.038L324.276 124.047V124.047L325.276 124.038ZM352.381 62.0756L353.293 62.485L353.293 62.4849L352.381 62.0756ZM379.499 1.62941L379.543 0.630391L378.864 0.600379L378.586 1.22009L379.499 1.62941ZM391.497 2.16009L391.453 3.15912L391.453 3.15912L391.497 2.16009ZM403.495 2.68887L404.407 2.27775L404.154 1.71693L403.539 1.68984L403.495 2.68887ZM52.3412 22.6778L52.0449 21.7228L52.0444 21.7229L52.3412 22.6778ZM28.3617 44.3996L27.4512 43.986L27.4512 43.986L28.3617 44.3996ZM28.3084 82.5933L27.398 83.0069L27.398 83.0069L28.3084 82.5933ZM52.366 104.458L52.6795 103.508L52.6794 103.508L52.366 104.458ZM85.464 103.41L84.7448 102.715L84.7444 102.715L85.464 103.41ZM78.8772 87.3314L78.0138 87.836V87.836L78.8772 87.3314ZM70.5403 73.0658L70.4914 72.067L68.8454 72.1475L69.6769 73.5704L70.5403 73.0658ZM82.358 72.4876L82.4069 73.4864L82.4069 73.4864L82.358 72.4876ZM101.974 82.7797L102.834 82.2697V82.2697L101.974 82.7797ZM106.499 81.7203L105.617 81.2484L105.617 81.2486L106.499 81.7203ZM109.833 65.5982L110.83 65.6749L110.83 65.6748L109.833 65.5982ZM105.223 43.6121L106.107 43.1458L106.107 43.1458L105.223 43.6121ZM69.7339 21.3844L69.7748 20.3852L69.7747 20.3852L69.7339 21.3844ZM481.26 51.1919H480.26V52.1919H481.26V51.1919ZM534.187 46.7905L534.916 47.4754L534.916 47.4751L534.187 46.7905ZM533.921 26.7958L534.606 26.0671L534.605 26.0668L533.921 26.7958ZM481.26 22.6607V21.6607H480.26V22.6607H481.26ZM188.043 38.0751L187.118 37.695V37.695L188.043 38.0751ZM183.043 50.2408L182.118 49.8607L181.586 51.1536L182.981 51.239L183.043 50.2408ZM192.559 50.8229L192.498 51.821L192.498 51.821L192.559 50.8229ZM198.402 37.8146L197.49 38.225L197.49 38.2252L198.402 37.8146ZM193.044 25.9095L193.956 25.499L193.002 23.3804L192.119 25.5293L193.044 25.9095ZM385.859 38.0751L386.784 38.4553V38.4553L385.859 38.0751ZM380.859 50.2408L379.934 49.8607L379.402 51.1536L380.798 51.239L380.859 50.2408ZM390.375 50.8229L390.314 51.821L390.314 51.821L390.375 50.8229ZM396.218 37.8146L395.306 38.225L395.306 38.2252L396.218 37.8146ZM390.86 25.9095L391.772 25.499L390.818 23.3804L389.935 25.5293L390.86 25.9095ZM481.26 104.45H480.26V105.45H481.26V104.45ZM537.286 103.269L537.643 104.203L537.644 104.202L537.286 103.269ZM540.371 77.6745L541.078 76.9674V76.9674L540.371 77.6745ZM534.811 72.1148L535.518 71.4077L535.225 71.1148H534.811V72.1148ZM481.26 72.1148V71.1148H480.26V72.1148H481.26ZM97.352 7.21059C131.598 23.9645 143.373 64.5798 123.514 97.5585L125.228 98.5902C145.682 64.6233 133.548 22.6921 98.2309 5.41406L97.352 7.21059ZM123.514 97.5584C120.188 103.081 118.327 106.735 118.173 110.021C118.014 113.406 119.664 116.206 122.581 119.987L124.164 118.765C121.253 114.992 120.049 112.708 120.171 110.114C120.297 107.42 121.849 104.2 125.228 98.5903L123.514 97.5584ZM122.581 119.987L126.027 124.453L127.611 123.231L124.164 118.765L122.581 119.987ZM127.731 124.251L155.163 63.1452L153.338 62.3261L125.907 123.432L127.731 124.251ZM155.163 63.1452L182.595 2.03896L180.77 1.21987L153.338 62.3261L155.163 63.1452ZM181.638 2.62844L193.637 3.15912L193.725 1.16107L181.727 0.630391L181.638 2.62844ZM193.637 3.15912L205.635 3.6879L205.723 1.68984L193.725 1.16106L193.637 3.15912ZM204.768 3.09999L231.762 62.9546L233.585 62.1324L206.591 2.27775L204.768 3.09999ZM231.762 62.9546L258.756 122.809L260.579 121.987L233.585 62.1324L231.762 62.9546ZM260.668 122.406L261.17 62.0763L259.17 62.0597L258.668 122.39L260.668 122.406ZM261.17 62.0763L261.672 1.74615L259.672 1.72951L259.17 62.0597L261.17 62.0763ZM260.672 2.73783H273.009V0.737829H260.672V2.73783ZM273.009 2.73783H285.346V0.737829H273.009V2.73783ZM284.346 1.73783V54.045H286.346V1.73783H284.346ZM284.346 54.045V106.352H286.346V54.045H284.346ZM285.346 107.352H304.367V105.352H285.346V107.352ZM304.367 107.352H323.387V105.352H304.367V107.352ZM322.387 106.352V115.897H324.387V106.352H322.387ZM322.387 115.897V125.443H324.387V115.897H322.387ZM323.399 124.443L279.503 123.932L279.48 125.932L323.376 126.443L323.399 124.443ZM279.503 123.932L235.609 123.422L235.585 125.422L279.48 125.932L279.503 123.932ZM236.517 124.029L225.542 98.3509L223.702 99.1369L234.677 124.815L236.517 124.029ZM225.541 98.3508L214.565 72.6727L212.726 73.4589L223.702 99.1369L225.541 98.3508ZM213.672 72.0662L193.675 71.5298L193.622 73.5291L213.618 74.0654L213.672 72.0662ZM193.675 71.5298L173.679 70.9915L173.625 72.9908L193.622 73.5291L193.675 71.5298ZM172.734 71.5953L161.433 97.8117L163.27 98.6033L174.57 72.387L172.734 71.5953ZM161.433 97.8116L150.133 124.026L151.97 124.818L163.27 98.6034L161.433 97.8116ZM151.03 123.422L126.668 123.957L126.712 125.956L151.073 125.422L151.03 123.422ZM126.668 123.957C119.686 124.109 113.381 124.044 108.669 123.808C106.31 123.69 104.368 123.53 102.946 123.336C102.233 123.239 101.672 123.136 101.263 123.032C100.803 122.914 100.686 122.83 100.715 122.854L99.4368 124.392C99.7883 124.684 100.308 124.852 100.769 124.97C101.281 125.101 101.926 125.216 102.676 125.318C104.178 125.523 106.185 125.686 108.569 125.806C113.342 126.045 119.697 126.11 126.712 125.956L126.668 123.957ZM100.715 122.854C100.151 122.385 99.4135 122.129 98.607 122.005C97.7936 121.88 96.8347 121.877 95.7506 121.974C93.5828 122.169 90.778 122.78 87.3645 123.78L87.927 125.699C91.2887 124.714 93.9505 124.144 95.9296 123.966C96.9189 123.877 97.7037 123.89 98.3026 123.982C98.9084 124.075 99.2525 124.239 99.4366 124.392L100.715 122.854ZM87.3644 123.78C79.9317 125.959 70.572 126.646 61.3397 125.962C52.1057 125.277 43.0889 123.227 36.3325 120.001L35.4706 121.805C42.5157 125.17 51.7931 127.26 61.1918 127.956C70.5923 128.653 80.2041 127.963 87.9271 125.699L87.3644 123.78ZM36.3323 120.001C24.089 114.157 11.7709 101.627 6.00319 89.1487L4.18774 89.9878C10.1483 102.883 22.8006 115.758 35.4708 121.806L36.3323 120.001ZM6.00318 89.1487C3.24772 83.1874 1.84398 73.5777 1.8681 63.7963C1.89222 54.0187 3.34253 44.2877 6.13462 38.0923L4.31124 37.2705C1.35145 43.8381 -0.107484 53.8944 -0.131891 63.7914C-0.156288 73.6847 1.25218 83.6369 4.18774 89.9878L6.00318 89.1487ZM6.13461 38.0923C13.4489 21.8638 27.7041 9.59741 46.5394 3.42227L45.9164 1.5218C26.6113 7.85093 11.8827 20.4713 4.31125 37.2705L6.13461 38.0923ZM46.5394 3.42227C52.8842 1.34217 62.4611 0.746374 72.0824 1.46282C81.7012 2.17907 91.1865 4.19362 97.3519 7.21056L98.231 5.4141C91.74 2.23787 81.9677 0.19338 72.2309 -0.531663C62.4966 -1.25652 52.6198 -0.675882 45.9164 1.5218L46.5394 3.42227ZM429.578 62.9546L456.572 122.809L458.396 121.987L431.401 62.1324L429.578 62.9546ZM458.484 122.406L458.986 62.0763L456.986 62.0597L456.484 122.39L458.484 122.406ZM458.986 62.0763L459.488 1.74615L457.488 1.72951L456.986 62.0597L458.986 62.0763ZM458.487 2.73783L495.076 2.77969L495.078 0.779688L458.49 0.73783L458.487 2.73783ZM495.076 2.77969C518.184 2.80638 531.347 3.4662 539.721 6.38728C543.857 7.83015 546.792 9.81716 549.173 12.5514C551.573 15.3078 553.449 18.8676 555.397 23.5293L557.243 22.7583C555.269 18.0352 553.294 14.2387 550.681 11.238C548.049 8.2151 544.81 6.04418 540.38 4.49888C531.621 1.44364 518.083 0.806257 495.078 0.779688L495.076 2.77969ZM555.397 23.5294C559.113 32.422 558.93 42.5709 554.879 51.5925L556.703 52.4119C560.975 42.8996 561.177 32.175 557.242 22.7583L555.397 23.5294ZM554.879 51.5924C554.058 53.4191 553.42 54.8506 553.006 56.0192C552.592 57.1879 552.362 58.1978 552.435 59.1701C552.511 60.172 552.9 61.0201 553.506 61.8824C554.094 62.7188 554.935 63.6337 555.973 64.7526L557.439 63.3929C556.374 62.2437 555.636 61.4351 555.142 60.7322C554.666 60.0552 554.47 59.5483 554.43 59.019C554.387 58.4601 554.51 57.7627 554.891 56.6874C555.272 55.6121 555.872 54.2629 556.703 52.4119L554.879 51.5924ZM555.972 64.7525C570.491 80.4192 567.838 104.502 549.916 118.176L551.129 119.766C569.905 105.44 572.83 80.0009 557.439 63.3931L555.972 64.7525ZM549.916 118.176L542.771 123.627L543.984 125.217L551.129 119.766L549.916 118.176ZM543.378 123.422H488.398V125.422H543.378V123.422ZM488.398 123.422H433.419V125.422H488.398V123.422ZM434.338 124.029L423.36 98.3507L421.521 99.137L432.499 124.815L434.338 124.029ZM423.36 98.3507L412.381 72.6727L410.542 73.4589L421.521 99.137L423.36 98.3507ZM411.488 72.0662L391.492 71.5298L391.438 73.5291L411.435 74.0654L411.488 72.0662ZM391.492 71.5298L371.495 70.9915L371.441 72.9908L391.438 73.5291L391.492 71.5298ZM370.55 71.5955L359.255 97.8118L361.092 98.6032L372.387 72.3868L370.55 71.5955ZM359.255 97.8118L347.961 124.026L349.798 124.818L361.092 98.6032L359.255 97.8118ZM348.831 123.423L337.036 123.99L337.132 125.988L348.927 125.421L348.831 123.423ZM337.037 123.99C333.822 124.144 330.916 124.113 328.83 123.945C327.78 123.861 326.978 123.744 326.458 123.612C326.19 123.544 326.059 123.487 326.017 123.463C325.911 123.402 326.272 123.559 326.276 124.029L324.276 124.047C324.282 124.725 324.811 125.077 325.023 125.198C325.298 125.356 325.633 125.466 325.966 125.551C326.647 125.724 327.58 125.851 328.67 125.939C330.864 126.115 333.859 126.144 337.132 125.988L337.037 123.99ZM326.276 124.029C326.277 124.092 326.27 124.14 326.268 124.157C326.265 124.178 326.262 124.192 326.261 124.195C326.26 124.201 326.261 124.193 326.269 124.166C326.285 124.113 326.313 124.029 326.357 123.907C326.443 123.665 326.576 123.32 326.756 122.87C327.114 121.972 327.645 120.692 328.332 119.069C329.705 115.823 331.693 111.225 334.148 105.611C339.059 94.384 345.836 79.1052 353.293 62.485L351.469 61.6662C344.01 78.2905 337.23 93.5753 332.316 104.809C329.859 110.426 327.867 115.033 326.49 118.289C325.801 119.917 325.264 121.212 324.898 122.129C324.716 122.586 324.573 122.957 324.474 123.232C324.425 123.368 324.383 123.492 324.353 123.595C324.337 123.647 324.321 123.704 324.309 123.762C324.3 123.802 324.275 123.914 324.276 124.047L326.276 124.029ZM353.293 62.4849L380.411 2.03874L378.586 1.22009L351.468 61.6663L353.293 62.4849ZM379.455 2.62844L391.453 3.15912L391.541 1.16107L379.543 0.630391L379.455 2.62844ZM391.453 3.15912L403.451 3.6879L403.539 1.68984L391.541 1.16106L391.453 3.15912ZM402.584 3.09999L429.578 62.9546L431.401 62.1324L404.407 2.27775L402.584 3.09999ZM52.0444 21.7229C47.5508 23.1197 42.4183 26.478 37.9355 30.5386C33.4489 34.6026 29.5019 39.471 27.4512 43.986L29.2722 44.8131C31.1721 40.6299 34.9133 35.9746 39.2781 32.0209C43.6467 28.0638 48.5285 24.9102 52.6381 23.6328L52.0444 21.7229ZM27.4512 43.986C25.0637 49.243 23.892 56.4194 23.8821 63.5193C23.8722 70.6187 25.0238 77.7805 27.398 83.0069L29.2189 82.1797C27.0033 77.3023 25.8725 70.4515 25.8821 63.5221C25.8917 56.5932 27.0415 49.7247 29.2722 44.8131L27.4512 43.986ZM27.398 83.0069C29.5781 87.8061 33.3289 92.6006 37.7124 96.5844C42.0948 100.567 47.1721 103.797 52.0525 105.407L52.6794 103.508C48.1312 102.007 43.291 98.9519 39.0575 95.1044C34.825 91.2578 31.2614 86.676 29.2189 82.1797L27.398 83.0069ZM52.0524 105.407C54.0975 106.083 57.054 106.522 60.3233 106.769C63.6113 107.018 67.2836 107.077 70.7962 106.966C74.3059 106.855 77.6801 106.573 80.3675 106.131C81.7094 105.911 82.9039 105.647 83.8681 105.337C84.7897 105.039 85.6537 104.653 86.1836 104.104L84.7444 102.715C84.5806 102.885 84.1308 103.15 83.2543 103.433C82.4204 103.702 81.3326 103.946 80.0435 104.158C77.4692 104.58 74.1874 104.858 70.7329 104.967C67.2812 105.076 63.6811 105.018 60.4742 104.775C57.2486 104.531 54.4881 104.105 52.6795 103.508L52.0524 105.407ZM86.1833 104.104C86.5459 103.729 86.6649 103.244 86.6979 102.84C86.7321 102.424 86.6861 101.959 86.5945 101.476C86.4104 100.506 86.0062 99.2837 85.4262 97.8681C84.2617 95.0255 82.3197 91.24 79.7406 86.8268L78.0138 87.836C80.5703 92.2104 82.461 95.9058 83.5755 98.6263C84.1351 99.9922 84.4821 101.072 84.6296 101.849C84.7036 102.239 84.7185 102.508 84.7046 102.677C84.6897 102.859 84.6518 102.811 84.7448 102.715L86.1833 104.104ZM79.7406 86.8268L71.4037 72.5612L69.6769 73.5704L78.0138 87.836L79.7406 86.8268ZM70.5892 74.0646L82.4069 73.4864L82.3091 71.4888L70.4914 72.067L70.5892 74.0646ZM82.4069 73.4864C85.4904 73.3354 87.8199 73.2659 89.6939 73.3964C91.5556 73.5261 92.9024 73.8502 94.0388 74.4464C96.3441 75.6557 98.0333 78.0948 101.114 83.2898L102.834 82.2697C99.8319 77.2068 97.871 74.1983 94.968 72.6753C93.5003 71.9053 91.8533 71.542 89.8329 71.4012C87.8247 71.2613 85.3836 71.3382 82.3091 71.4888L82.4069 73.4864ZM101.114 83.2898C101.594 84.0999 102.022 84.7946 102.425 85.2644C102.795 85.6948 103.441 86.2854 104.336 86.0761C104.726 85.9848 105.033 85.7615 105.264 85.5393C105.499 85.3144 105.717 85.033 105.924 84.7267C106.338 84.1168 106.81 83.259 107.381 82.1919L105.617 81.2486C105.037 82.3328 104.613 83.0961 104.269 83.6044C104.097 83.8572 103.97 84.0093 103.881 84.0955C103.788 84.1844 103.789 84.15 103.88 84.1287C104.176 84.0594 104.246 84.3147 103.943 83.9617C103.674 83.6482 103.333 83.1115 102.834 82.2697L101.114 83.2898ZM107.381 82.1921C108.128 80.796 108.862 78.2266 109.467 75.3026C110.079 72.3411 110.583 68.8967 110.83 65.6749L108.836 65.5215C108.595 68.6546 108.104 72.0149 107.508 74.8975C106.904 77.8177 106.215 80.1319 105.617 81.2484L107.381 82.1921ZM110.83 65.6748C111.217 60.6383 111.273 57.2892 110.591 54.0348C109.909 50.7821 108.504 47.6925 106.107 43.1458L104.338 44.0784C106.727 48.6103 108.014 51.4875 108.634 54.4452C109.253 57.401 109.222 60.5057 108.836 65.5216L110.83 65.6748ZM106.107 43.1458C102.289 35.9031 97.3747 30.3704 91.3031 26.5672C85.2321 22.7645 78.0589 20.7249 69.7748 20.3852L69.6929 22.3836C77.6906 22.7115 84.5129 24.6739 90.2414 28.2622C95.9693 31.85 100.658 37.0974 104.338 44.0784L106.107 43.1458ZM69.7747 20.3852C66.5191 20.2523 62.917 20.3332 59.7301 20.5702C56.5682 20.8054 53.7299 21.1999 52.0449 21.7228L52.6376 23.6329C54.091 23.1819 56.7355 22.7985 59.8785 22.5647C62.9964 22.3329 66.5214 22.254 69.6931 22.3836L69.7747 20.3852ZM480.26 36.9263V51.1919H482.26V36.9263H480.26ZM481.26 52.1919H505.656V50.1919H481.26V52.1919ZM505.656 52.1919C517.136 52.1919 523.389 52.1336 527.249 51.538C529.207 51.2359 530.62 50.7869 531.819 50.0987C533.011 49.4143 533.926 48.5287 534.916 47.4754L533.458 46.1055C532.495 47.1302 531.747 47.8339 530.823 48.3643C529.906 48.891 528.75 49.2827 526.944 49.5614C523.275 50.1275 517.216 50.1919 505.656 50.1919V52.1919ZM534.916 47.4751C540.764 41.2485 540.674 31.7692 534.606 26.0671L533.236 27.5246C538.451 32.4246 538.597 40.6347 533.458 46.1059L534.916 47.4751ZM534.605 26.0668C533.565 25.0905 532.579 24.2821 531.319 23.6533C530.06 23.0251 528.586 22.6041 526.591 22.3149C522.644 21.7429 516.436 21.6607 505.39 21.6607V23.6607C516.499 23.6607 522.534 23.7478 526.304 24.2942C528.166 24.5642 529.418 24.9397 530.426 25.4428C531.433 25.9452 532.254 26.6029 533.236 27.5249L534.605 26.0668ZM505.39 21.6607H481.26V23.6607H505.39V21.6607ZM480.26 22.6607V36.9263H482.26V22.6607H480.26ZM187.118 37.695L182.118 49.8607L183.967 50.621L188.968 38.4553L187.118 37.695ZM182.981 51.239L192.498 51.821L192.62 49.8247L183.104 49.2427L182.981 51.239ZM192.498 51.821C195.137 51.9821 197.64 52.0341 199.553 51.9861C200.506 51.9622 201.332 51.9131 201.962 51.8364C202.274 51.7983 202.563 51.7506 202.805 51.6882C202.926 51.657 203.056 51.617 203.18 51.5635C203.291 51.5156 203.468 51.4276 203.626 51.2694L202.212 49.8552C202.267 49.7999 202.316 49.7673 202.342 49.7517C202.368 49.7354 202.386 49.7279 202.388 49.7269C202.39 49.726 202.367 49.7358 202.306 49.7515C202.184 49.783 201.991 49.818 201.72 49.8511C201.181 49.9167 200.427 49.9636 199.503 49.9868C197.66 50.033 195.215 49.9832 192.62 49.8247L192.498 51.821ZM203.626 51.2694C203.885 51.0102 203.947 50.6975 203.967 50.5561C203.992 50.3849 203.988 50.2149 203.976 50.0709C203.953 49.7788 203.886 49.4314 203.795 49.0592C203.612 48.3052 203.297 47.3031 202.883 46.1355C202.052 43.7925 200.796 40.6954 199.314 37.404L197.49 38.2252C198.956 41.4807 200.19 44.5254 200.998 46.8035C201.403 47.9464 201.692 48.8747 201.852 49.5315C201.933 49.8647 201.972 50.0927 201.982 50.2287C201.988 50.2988 201.983 50.306 201.987 50.273C201.988 50.2698 202.011 50.0564 202.212 49.8552L203.626 51.2694ZM199.314 37.4041L193.956 25.499L192.132 26.3199L197.49 38.225L199.314 37.4041ZM192.119 25.5293L187.118 37.695L188.968 38.4553L193.969 26.2896L192.119 25.5293ZM384.934 37.695L379.934 49.8607L381.784 50.621L386.784 38.4553L384.934 37.695ZM380.798 51.239L390.314 51.821L390.436 49.8247L380.92 49.2427L380.798 51.239ZM390.314 51.821C392.953 51.9821 395.457 52.0341 397.369 51.9861C398.323 51.9622 399.148 51.9131 399.778 51.8364C400.09 51.7983 400.379 51.7506 400.621 51.6882C400.742 51.657 400.872 51.617 400.996 51.5635C401.107 51.5156 401.284 51.4276 401.443 51.2694L400.028 49.8552C400.084 49.7999 400.133 49.7673 400.158 49.7517C400.185 49.7354 400.202 49.7279 400.204 49.7269C400.207 49.7259 400.183 49.7358 400.122 49.7515C400 49.783 399.808 49.818 399.536 49.8511C398.997 49.9167 398.243 49.9636 397.319 49.9868C395.476 50.033 393.031 49.9832 390.436 49.8247L390.314 51.821ZM401.443 51.2694C401.702 51.0102 401.763 50.6975 401.784 50.5561C401.808 50.3849 401.804 50.2149 401.792 50.0709C401.769 49.7788 401.702 49.4314 401.612 49.0592C401.429 48.3052 401.113 47.3031 400.699 46.1355C399.869 43.7925 398.612 40.6954 397.13 37.404L395.306 38.2252C396.772 41.4807 398.007 44.5254 398.814 46.8035C399.219 47.9464 399.509 48.8747 399.668 49.5315C399.749 49.8647 399.788 50.0927 399.799 50.2287C399.804 50.2988 399.799 50.306 399.804 50.273C399.804 50.2698 399.827 50.0564 400.028 49.8552L401.443 51.2694ZM397.13 37.4041L391.772 25.499L389.948 26.3199L395.306 38.225L397.13 37.4041ZM389.935 25.5293L384.934 37.695L386.784 38.4553L391.785 26.2896L389.935 25.5293ZM480.26 88.2824V104.45H482.26V88.2824H480.26ZM481.26 105.45H507.733V103.45H481.26V105.45ZM507.733 105.45C515.024 105.45 522.002 105.317 527.375 105.102C530.06 104.995 532.351 104.867 534.083 104.724C534.949 104.652 535.684 104.577 536.264 104.496C536.811 104.421 537.311 104.33 537.643 104.203L536.928 102.335C536.837 102.37 536.551 102.438 535.99 102.515C535.461 102.588 534.766 102.661 533.919 102.73C532.227 102.87 529.966 102.997 527.295 103.104C521.954 103.317 515.003 103.45 507.733 103.45V105.45ZM537.644 104.202C538.81 103.755 539.95 102.776 540.978 101.593C542.023 100.39 543.026 98.889 543.898 97.2758C545.627 94.0781 546.931 90.2713 546.931 87.28H544.931C544.931 89.801 543.792 93.2668 542.139 96.3245C541.32 97.8391 540.396 99.2119 539.468 100.281C538.522 101.37 537.642 102.061 536.927 102.335L537.644 104.202ZM546.931 87.28C546.931 85.8874 546.186 84.0552 545.163 82.2888C544.114 80.4757 542.671 78.5608 541.078 76.9674L539.664 78.3816C541.129 79.8468 542.466 81.6219 543.432 83.2906C544.425 85.0059 544.931 86.4472 544.931 87.28H546.931ZM541.078 76.9674L535.518 71.4077L534.104 72.8219L539.664 78.3816L541.078 76.9674ZM534.811 71.1148H508.036V73.1148H534.811V71.1148ZM508.036 71.1148H481.26V73.1148H508.036V71.1148ZM480.26 72.1148V88.2824H482.26V72.1148H480.26Z" fill="#EBEBEB" mask="url(#path-1-inside-1_1_99)"/>
</svg>
