<svg width="176" height="338" viewBox="0 0 176 338" fill="none" xmlns="http://www.w3.org/2000/svg">
<path d="M26.9172 335.759C27.2344 325.924 28.6549 317.301 30.9797 307.873C32.5273 301.596 34.9733 294.334 34.9733 287.904C34.9733 282.428 31.6092 279.179 27.5369 275.786C21.9554 271.134 15.9399 267.309 11.2869 261.533C7.75538 257.149 3.65039 251.193 2.74871 245.558C1.56861 238.182 2.01359 232.129 2.611 224.695C2.85302 221.683 2.45041 218.6 2.78314 215.606C2.9772 213.859 3.95392 212.46 3.98812 210.579C4.07941 205.558 4.60782 200.621 4.60782 195.603C4.60782 191.093 4.60782 186.583 4.60782 182.073C4.60782 177.058 3.57752 172.32 3.36842 167.406C3.20826 163.643 1.8017 159.667 3.50613 156.045C5.51259 151.781 5.88477 145.404 9.22117 142.067C12.3298 138.959 17.1507 137.975 21.271 136.559C23.9408 135.641 26.694 135.6 29.396 134.837C31.0868 134.36 33.0538 133.182 34.8356 133.116C40.9295 132.89 39.3112 119.074 39.3112 115.076C39.3112 105.605 35.358 96.8341 34.3536 87.2924C33.5609 79.762 31.6599 72.6441 31.9092 64.9142C32.2035 55.7927 32.5103 44.1421 37.3144 36.098C40.8466 30.1836 45.2168 24.9059 48.7445 18.9529C52.8379 12.0452 61.3505 6.26624 68.9882 4.18325C72.688 3.1742 75.8072 3.00478 79.7297 2.97827C83.3694 2.95368 87.1652 2.11486 90.7811 2.393C96.3529 2.8216 102.592 4.18289 107.823 6.07679C114.879 8.63163 118.987 14.8502 123.935 20.0546C129.01 25.3915 132.707 33.3249 135.365 40.1605C139.803 51.5711 140.026 64.4505 144.041 75.8279C145.237 79.2152 147.588 80.6593 150.858 81.543C155.336 82.7531 158.048 83.7778 161.703 86.6383C166.58 90.4549 171.036 97.2494 173.787 102.751" stroke="#CDDE00" stroke-width="3" stroke-linecap="round"/>
</svg>
