<svg width="210" height="287" viewBox="0 0 210 287" fill="none" xmlns="http://www.w3.org/2000/svg">
<path d="M4.39777 284.979C3.57057 271.836 2.38285 258.558 2.38285 245.39C2.38285 240.487 2.24886 235.574 2.71867 230.688C3.34857 224.137 5.62675 218.018 7.60672 211.77C9.65169 205.317 12.7616 200.691 16.1888 194.979C19.0364 190.233 21.308 185.99 25.5918 182.255C33.8624 175.045 43.4384 174.891 53.838 174.121C60.1664 173.652 65.8356 174.463 69.3977 168.263C70.8511 165.733 70.2186 162.03 70.2186 159.233C70.2186 153.677 69.7051 148.162 69.2111 142.629C67.7863 126.671 68.2036 110.538 68.2036 94.5316C68.2036 78.1894 68.7959 62.2952 72.0842 46.2481C74.399 34.9522 77.8954 24.2235 85.629 15.3527C93.1618 6.71204 104.621 2.32176 115.89 2.21837C130.951 2.0802 144.817 7.80647 159.024 12.293C168.312 15.2259 177.913 18.6858 184.733 26.0989C187.631 29.2482 189.165 32.9882 190.815 36.8825C193.456 43.1141 196.325 47.9082 196.487 54.8302C196.739 65.5784 197.68 76.2313 196.823 87.0316C195.894 98.7295 194.988 112.777 197.159 124.308C199.252 135.429 198.753 142.907 207.905 150.651" stroke="#CDDE00" stroke-width="3" stroke-linecap="round"/>
</svg>
