<svg width="381" height="342" viewBox="0 0 381 342" fill="none" xmlns="http://www.w3.org/2000/svg">
<path d="M-132.242 65.0756C-114.08 87.9218 -100.575 115.418 -77.7568 133.614C-11.4119 186.521 53.1793 193.361 136.634 190.845C211.306 188.594 334.262 173.042 373.419 93.1183C383.608 72.3213 381.923 25.1916 361.03 9.42728C327.386 -15.9589 260.326 33.3827 236.19 49.4713C129.308 120.718 0.157011 225.943 37.5536 369.738C56.0472 440.849 137.176 565.387 206.773 463.218C268.692 372.321 231.002 259.534 137.871 207.079C85.9215 177.819 33.4092 183.461 -20.3176 203.159C-100.303 232.484 -182.691 283.024 -237.371 349.152C-420.094 570.127 -216.587 853.824 -164.267 1082.84C-154.768 1124.42 -140.205 1213.16 -211.811 1191.31C-267.087 1174.43 -318.197 1135.78 -360.801 1098.52C-433.897 1034.6 -514.705 947.892 -515.481 844.111C-516.05 767.966 -476.274 688.927 -432.857 628.788C-379.898 555.432 -309.986 500.499 -225.186 468.891C-159.855 444.54 -69.5518 425.666 -2.5052 458.287C83.5331 500.148 107.328 630.043 138.286 709.19C158.506 760.883 179.133 833.5 222.034 873.033C252.74 901.329 279.197 868.469 295.157 842.34C330.326 784.763 350.644 714.713 363.059 649.076C366.546 630.64 396.222 476.896 351.843 468.78C323.397 463.577 269.481 567.696 264.91 575.069C197.812 683.319 136.563 795.419 77.6373 908.266C10.2633 1037.29 -52.2796 1168.69 -118.048 1298.52C-138.724 1339.34 -173.493 1407.55 -199.445 1449.92" stroke="#CDDE00" stroke-width="3" stroke-linecap="round"/>
</svg>
