<svg width="156" height="200" viewBox="0 0 156 200" fill="none" xmlns="http://www.w3.org/2000/svg">
<path d="M2.2229 198.035C2.49336 190.191 2.44741 182.279 3.03429 174.454C3.37463 169.916 4.93659 165.376 5.67129 160.863C6.45173 156.069 7.62491 150.575 9.77893 146.207C12.2234 141.251 15.5768 136.268 18.6535 131.653C24.8144 122.412 33.0441 115.534 42.1837 109.441C45.1252 107.48 48.1849 105.499 51.0582 103.457C53.2303 101.914 56.1141 100.292 57.6507 98.0565C59.1633 95.8565 60.5336 93.5548 62.0119 91.3373C63.3347 89.3531 62.6891 87.4188 63.1529 85.0997C64.4708 78.5102 63.5448 72.219 62.9501 65.6772C62.3114 58.652 62.4371 50.9635 64.8011 44.3783C67.6232 36.5165 72.0983 29.9283 76.1858 22.7751C78.2982 19.0784 80.7223 15.4863 82.9812 11.8721C85.0699 8.53014 86.8748 7.20311 90.7147 6.24313C97.105 4.64555 103.467 3.03999 110.061 2.49047C112.514 2.28609 116.65 1.38272 119.012 2.54118C121.242 3.63515 123.042 5.30709 124.996 6.80095C128.719 9.64837 132.271 12.5311 135.493 15.9544C137.287 17.8605 138.746 19.9598 140.057 22.2173C141.131 24.0661 141.234 25.6117 141.883 27.5927C143.308 31.9478 144.895 36.2763 146.421 40.6003C148.262 45.816 148.695 51.0014 151.467 55.9912C153.625 59.8743 154.206 63.8423 154.206 68.2635C154.206 73.0739 155.465 76.0007 151.822 79.7243C144.279 87.4355 133.864 94.1636 128.748 104.015C126.172 108.977 124.618 113.773 128.748 118.062C130.336 119.711 131.208 122.463 132.983 123.843C134.127 124.733 135.048 125.633 135.949 126.835" stroke="#CDDE00" stroke-width="3" stroke-linecap="round"/>
</svg>
