<svg width="1920" height="806" viewBox="0 0 1920 806" fill="none" xmlns="http://www.w3.org/2000/svg">
<path d="M-110.906 81.2036C-40.4152 43.1383 19.3757 0.439095 105.603 2.47276C202.122 4.74914 337.477 70.224 326.799 185.709C324.594 209.564 300.165 253.938 290.246 274.282C270.079 315.644 256.526 339.698 244.32 385.348C220.465 474.559 216.171 570.995 291.417 635.131C341.923 678.179 407.073 714.688 473.014 726.047C524.964 734.995 597.024 729.99 622.977 675.2C648.035 622.299 612.74 569.855 563.929 548.668C495.618 519.016 423.682 540.653 386.316 604.67C343.59 677.87 356.343 780.777 450.051 802.903C450.769 803.073 470.159 806.692 467.859 796.342C464.26 780.146 434.899 754.199 427.556 748.073C390.149 716.865 348.259 691.334 307.117 665.593C262.851 637.897 195.706 609.843 166.057 563.196C136.248 516.296 195.92 485.65 231.901 476.264C310.124 455.858 408.968 457.285 473.951 511.646C537.966 565.196 551.813 649.815 602.123 712.456C642.182 762.334 734.731 766.781 792.624 772.442C873.101 780.31 955.267 778.509 1035.38 767.755C1117.33 756.754 1205.21 742.11 1278.6 701.678C1309.16 684.843 1339 668.856 1370.45 653.408C1419.8 629.166 1461.2 592.702 1509.87 568.585C1555.68 545.888 1604.89 533.701 1645.31 500.633C1689.31 464.63 1714.35 413.164 1728.49 359.105C1746.51 290.213 1752.77 213.797 1734.58 144.235C1725.7 110.254 1716.31 91.1126 1695.45 64.3327C1686.07 52.2832 1664.77 25.7309 1657.26 39.0264C1638.76 71.7525 1652.99 149.766 1658.19 181.492C1679.7 312.506 1731.46 438.039 1783.79 559.212C1796.79 589.312 1818.18 616.563 1824.56 648.722C1826.95 660.757 1801.23 640.799 1790.35 635.131C1730.01 603.704 1738.5 607.62 1669.91 577.489C1633.27 561.395 1526.51 536.42 1512.45 487.511C1502.58 453.193 1539.47 415.265 1557.91 396.83C1593.72 361.016 1630.43 333.086 1682.33 325.832C1776.18 312.713 1827.92 392.877 1869.31 461.736C1869.93 462.763 1886.84 506.408 1905.17 498.524C1931.26 487.293 1941.06 454.459 1958.12 431.743C2016.58 353.916 2083.83 290.556 2158.23 228.824" stroke="#CDDE00" stroke-width="3" stroke-linecap="round"/>
</svg>
