<svg width="381" height="960" viewBox="0 0 381 960" fill="none" xmlns="http://www.w3.org/2000/svg">
<path d="M-132.242 -276.924C-114.08 -254.078 -100.575 -226.582 -77.7568 -208.386C-11.4119 -155.479 53.1793 -148.639 136.634 -151.155C211.306 -153.406 334.262 -168.958 373.419 -248.882C383.608 -269.679 381.923 -316.808 361.03 -332.573C327.386 -357.959 260.326 -308.617 236.19 -292.529C129.308 -221.282 0.157011 -116.057 37.5536 27.7384C56.0472 98.8494 137.176 223.387 206.773 121.218C268.692 30.321 231.002 -82.4662 137.871 -134.921C85.9215 -164.181 33.4092 -158.539 -20.3176 -138.841C-100.303 -109.516 -182.691 -58.9758 -237.371 7.15208C-420.094 228.127 -216.587 511.824 -164.267 740.844C-154.768 782.424 -140.205 871.165 -211.811 849.307C-267.087 832.434 -318.197 793.776 -360.801 756.52C-433.897 692.6 -514.705 605.892 -515.481 502.111C-516.05 425.966 -476.274 346.927 -432.857 286.788C-379.898 213.432 -309.986 158.499 -225.186 126.891C-159.855 102.54 -69.5518 83.6664 -2.5052 116.287C83.5331 158.148 107.328 288.043 138.286 367.19C158.506 418.883 179.133 491.5 222.034 531.033C252.74 559.329 279.197 526.469 295.157 500.34C330.326 442.763 350.644 372.713 363.059 307.076C366.546 288.64 396.222 134.896 351.843 126.78C323.397 121.577 269.481 225.696 264.91 233.069C197.812 341.319 136.563 453.419 77.6373 566.266C10.2633 695.292 -52.2796 826.692 -118.048 956.521C-138.724 997.338 -173.493 1065.55 -199.445 1107.92" stroke="#CDDE00" stroke-width="3" stroke-linecap="round"/>
</svg>
