<svg width="261" height="163" viewBox="0 0 261 163" fill="none" xmlns="http://www.w3.org/2000/svg">
<path d="M151.124 59.7508C142.345 51.4678 137.669 46.136 127.042 39.9452C113.327 31.9557 97.4716 27.2362 81.6401 26.4563C61.4737 25.4629 42.644 33.9494 35.2515 53.8289C32.7832 60.4665 31.1541 72.4819 31.6325 79.5565C32.6927 95.2349 40.2449 107.275 52.3594 117.062C75.3686 135.652 104.751 146.778 133.095 154.042C155.325 159.738 179.702 163.149 202.514 158.845C222.264 155.118 244.119 142.918 253.443 124.3C264.045 103.13 257.611 80.2935 242.29 63.5014C232.89 53.2001 224.9 47.5332 212.45 40.6032C185.276 25.4784 154.818 15.2351 124.541 8.49305C99.4016 2.89479 73.4938 0.268269 47.885 3.78838C41.9681 4.60171 36.0865 5.76647 30.3165 7.30866C9.89514 12.7668 21.2061 11.6013 1.89114 18.2972" stroke="#CDDE00" stroke-width="3" stroke-linecap="round"/>
</svg>
