<svg width="262" height="127" viewBox="0 0 262 127" fill="none" xmlns="http://www.w3.org/2000/svg">
<path d="M152.017 46.7245C143.182 40.3373 138.477 36.2259 127.783 31.4521C113.983 25.2914 98.0277 21.6521 82.097 21.0507C61.8042 20.2847 42.8564 26.8287 35.4176 42.158C32.9338 47.2764 31.2945 56.5416 31.7759 61.9969C32.8428 74.0867 40.4424 83.3707 52.6327 90.9179C75.7861 105.253 105.353 113.832 133.875 119.433C156.244 123.826 180.773 126.456 203.728 123.137C223.603 120.263 245.594 110.856 254.976 96.4992C265.645 80.1744 259.171 62.5652 243.753 49.6166C234.295 41.6731 226.255 37.3033 213.726 31.9595C186.383 20.2966 155.733 12.3979 125.267 7.19903C99.9698 2.88216 73.8996 0.856814 48.1303 3.57121C42.1763 4.19838 36.2579 5.09654 30.4517 6.28574C9.90231 10.4946 21.2842 9.59585 1.84814 14.7591" stroke="#EBEBEB" stroke-width="3" stroke-linecap="round"/>
</svg>
