<svg width="222" height="248" viewBox="0 0 222 248" fill="none" xmlns="http://www.w3.org/2000/svg">
<path d="M2.4043 246.47C0.770297 231.968 3.80164 217.826 3.80164 203.359C3.80164 200.082 4.17188 197.353 4.62969 194.199C5.02473 191.478 5.66475 188.403 5.66475 185.66C5.66475 180.779 7.52787 176.166 7.52787 171.298C7.52787 167.12 9.28542 163.02 9.39099 158.903C9.54841 152.764 11.6837 146.476 12.9102 140.479C14.0143 135.081 16.0318 129.939 17.2057 124.539C17.5975 122.737 18.7314 120.207 19.6381 118.588C20.9205 116.298 22.2963 113.982 24.2959 112.222C27.2895 109.588 30.728 107.34 32.9128 103.941C35.1972 100.388 38.596 97.4631 42.0214 95.0917C47.4004 91.3677 53.5295 89.561 59.3328 86.7594C61.5136 85.7066 65.8791 84.2922 67.1476 82.231C69.1387 78.9955 69.1245 76.2826 69.0107 72.5273C68.8885 68.4954 63.0047 66.0823 61.6617 62.5907C60.6765 60.029 60.8993 56.815 59.3328 54.4654C57.9146 52.338 58.2803 49.2856 56.9004 47.0129C54.2217 42.6008 56.849 34.0442 58.3495 29.6497C59.6713 25.7787 61.7709 22.8379 63.8871 19.4285C67.9516 12.8802 73.3948 7.8151 80.4482 4.52354C84.6505 2.56246 88.548 2.40166 93.283 2.40166C96.2674 2.40166 99.2518 2.40166 102.236 2.40166C104.449 2.40166 107.27 3.91114 109.482 4.47179C120.415 7.24362 124.609 14.6701 128.165 24.4485C129.278 27.5106 128.63 31.496 128.63 34.7474C128.63 37.8553 130.413 43.915 133.806 44.9946C139.28 46.7363 145.377 46.2068 151.014 46.6765C156.962 47.1722 163.058 47.9174 168.894 49.2642C182.87 52.4893 196.862 55.8407 207.554 65.9546C209.513 67.8077 212.181 68.8802 214.023 70.8453C215.194 72.0937 215.621 74.2684 216.766 75.2702C218.103 76.4403 218.39 79.449 219.199 81.0666C220.058 82.7848 219.923 84.3515 219.923 86.2419" stroke="#CDDE00" stroke-width="3" stroke-linecap="round"/>
</svg>
