<svg width="108" height="170" viewBox="0 0 108 170" fill="none" xmlns="http://www.w3.org/2000/svg">
<path d="M47.7216 168.251C46.586 162.093 44.9954 156.075 42.6541 150.251C41.4102 147.157 40.26 144.878 37.0587 143.811C34.8212 143.065 32.2514 142.564 29.9325 142.122C26.0305 141.379 22.2438 140.625 18.5306 139.034C14.491 137.303 10.1498 136.11 6.17859 134.257C2.56931 132.573 2.11402 131.17 2.11402 127.421C2.11402 123.077 0.545956 118.098 2.80025 113.987C5.21094 109.591 7.813 105.531 11.1933 101.793C14.4303 98.2138 17.2891 94.266 21.1172 91.2886C26.1991 87.336 30.3954 83.1307 34.5249 78.2504C38.336 73.7464 43.4894 69.277 45.9268 63.8396C47.4199 60.5088 50.4233 58.4449 51.2847 54.6548C52.3728 49.8669 51.9973 44.4184 51.9973 39.5314C51.9973 36.7695 52.8055 34.1081 53.185 31.3759C53.6507 28.0226 53.7547 24.5967 54.3991 21.2673C55.4054 16.0679 57.1945 11.504 61.0238 7.67478C65.4134 3.28517 69.7096 2.44891 75.6456 2.44891C80.4152 2.44891 85.0887 3.30488 89.8452 3.39907C92.4157 3.44997 95.058 3.34681 97.2353 4.82431C100.932 7.33278 102.045 10.8692 104.256 14.4315C105.425 16.3151 104.446 18.7912 106.156 20.5019" stroke="#CDDE00" stroke-width="3" stroke-linecap="round"/>
</svg>
