<svg width="1920" height="499" viewBox="0 0 1920 499" fill="none" xmlns="http://www.w3.org/2000/svg">
<path d="M-266.079 497.04C-87.3841 453.68 166.872 392.556 350.399 346.073C444.54 322.229 551.583 300.809 642.791 262.24C676.799 247.86 703.801 222.664 730.543 197.832C767.988 163.062 806.401 125.651 835.845 83.84C848.479 65.8997 859.212 46.3154 867.709 26.0772C869.517 21.7712 873.334 7.69914 865.494 25.3956C848.267 64.2772 830.854 110.404 827.837 153.189C825.709 183.374 919.083 136.145 926.323 132.742C963.657 115.198 999.189 94.5448 1026.51 63.0522C1029.19 59.9665 1048.14 20.6429 1060.59 29.485C1081.73 44.4913 1097.23 80.785 1112.39 100.879C1126.93 120.14 1144.42 144.257 1168.28 153.189C1202.97 166.175 1250.01 152.003 1284.32 144.67C1293.51 142.705 1317.65 137.421 1309.71 132.402C1286.2 117.559 1245.64 111.212 1220.93 105.309C1138 85.4989 1054.25 69.3149 971.307 49.5912C953.777 45.4226 936.205 41.3032 918.997 35.9599C916.004 35.0307 889.988 31.2986 896.164 18.4095C904.832 0.320419 944.195 1.38552 958.016 2.22231C1018.55 5.88709 1078.67 25.4636 1135.39 45.3314C1167.32 56.5157 1207.01 71.3201 1237.46 88.2702C1260.23 100.949 1267.56 108.13 1252.45 128.994C1242.13 143.248 1220.28 161.595 1227.07 182.326C1238.62 217.651 1315.3 230.581 1340.72 236.341C1512.3 275.226 1686.46 270.028 1860.41 283.71C1881.88 285.398 1903.23 292.198 1923.8 297.682" stroke="#CDDE00" stroke-width="3" stroke-linecap="round"/>
</svg>
