<svg width="1920" height="501" viewBox="0 0 1920 501" fill="none" xmlns="http://www.w3.org/2000/svg">
<path d="M-10.7253 377.465C95.9293 375.717 204.167 357.786 305.665 324.15C382.612 298.65 433.485 226.723 490.518 173.763C530.096 137.013 569.765 135.535 621.787 131.084C680.649 126.049 745.29 116.105 798.696 88.8092C838.339 68.5472 878.17 37.3701 923.637 32.6666C983.457 26.4784 1040.39 58.0305 1097.85 69.1525C1143.55 77.9964 1189.95 77.1276 1236.26 75.4804C1295.1 73.3872 1355.15 70.61 1413.3 60.8052C1452.47 54.2012 1490.53 41.7001 1528.68 30.9164C1561.98 21.5052 1598.3 4.56518 1633.16 2.37393C1658.5 0.781272 1687.26 3.07106 1711.79 9.64418C1740.33 17.2954 1745.09 51.8365 1750.56 76.6921C1763.85 137.071 1767.9 199.696 1771.29 261.276C1774.82 325.16 1781.36 403.124 1754.2 463.362C1736.3 503.053 1696.24 508.606 1662.24 483.018C1639.53 465.93 1626.48 439.45 1618.75 412.874C1614 396.531 1605.47 363.881 1618.89 348.115C1626.76 338.869 1643.96 339.693 1653.62 341.383C1690.39 347.814 1725.81 367.014 1759.31 382.312C1770.31 387.333 1781.13 392.771 1792.3 397.391C1801.57 401.226 1819.01 412.381 1821.92 402.776C1827.07 385.755 1780.62 342.884 1774.66 337.209C1719.05 284.267 1651.77 249.232 1578.5 228.021C1574.09 226.746 1562.98 226.216 1565.84 222.636C1573.34 213.262 1602.74 203.925 1611.62 200.152C1636.62 189.53 1713.12 161.473 1688.09 172.013C1657.44 184.92 1625.99 195.642 1594.38 205.941C1580.78 210.373 1567.08 214.498 1553.46 218.866C1542.15 222.49 1508.45 228.807 1520.07 231.252C1539.77 235.4 1560.03 226.218 1579.84 222.636C1657.43 208.605 1735.43 193.53 1811.42 172.282C1847.93 162.073 1915.66 148.124 1937.97 109.543C1946.27 95.1958 1937.44 78.4939 1931.78 65.6521C1930.09 61.8101 1931.41 52.6736 1932.32 57.3047C1934.67 69.372 1931.2 84.1022 1930.43 96.3487" stroke="#CDDE00" stroke-width="3" stroke-linecap="round"/>
</svg>
