<svg width="418" height="848" viewBox="0 0 418 848" fill="none" xmlns="http://www.w3.org/2000/svg">
<path d="M307.417 704.723C337.336 632.729 378.575 547.743 378.378 468.187C378.246 414.849 359.728 398.507 307.417 431.796C202.251 498.72 125.005 610.686 40.2519 699.871C21.2358 719.881 12.5958 739.661 8.10723 710.485C-2.73384 640.018 2.95913 559.39 9.62346 489.414C12.9834 454.135 39.5633 155.394 125.162 189.802C203.612 221.335 251.816 343.297 269.813 416.331C284.342 475.289 285.166 515.8 283.46 574.931C283.046 589.27 284.337 657.801 273.453 675.611C260.334 697.078 131.499 527.35 125.466 517.313C96.1226 468.5 105.723 478.977 88.1657 439.074C77.5584 414.967 92.1885 491.606 93.321 517.92C95.6186 571.305 108.009 668.168 67.8478 713.214C52.6639 730.245 32.2573 686.423 40.8584 674.095C52.5539 657.331 79.4382 650.032 96.0502 645.589C175.28 624.399 260.168 624.316 339.561 645.892C370.189 654.215 554.872 726.079 485.729 788.421C443.157 826.805 370.996 833.131 317.424 839.367C315.552 839.585 188.273 853.942 193.394 839.367C199.451 822.129 209.844 806.672 216.441 789.634C258.736 680.401 284.475 564.744 312.875 451.508C378.533 189.718 444.753 -71.7579 514.841 -332.398" stroke="#CDDE00" stroke-width="3" stroke-linecap="round"/>
</svg>
