<svg width="337" height="866" viewBox="0 0 337 866" fill="none" xmlns="http://www.w3.org/2000/svg">
<path d="M19.675 147.622C-11.1944 221.901 -53.742 309.586 -53.5388 391.668C-53.4026 446.698 -34.2975 463.559 19.675 429.213C128.179 360.165 207.878 244.644 295.322 152.628C314.942 131.982 323.856 111.575 328.487 141.677C339.672 214.381 333.799 297.569 326.923 369.766C323.456 406.166 296.032 714.391 207.716 678.891C126.775 646.356 77.0412 520.523 58.4721 445.17C43.4819 384.34 42.6326 342.543 44.3925 281.534C44.8193 266.74 43.488 196.034 54.7175 177.658C68.2527 155.51 201.178 330.626 207.403 340.981C237.677 391.345 227.773 380.535 245.887 421.704C256.831 446.577 241.736 367.504 240.568 340.355C238.197 285.275 225.414 185.337 266.85 138.861C282.516 121.29 303.57 166.503 294.696 179.222C282.629 196.518 254.891 204.049 237.752 208.633C156.006 230.495 68.4238 230.581 -13.4902 208.32C-45.0897 199.733 -235.636 125.588 -164.298 61.2668C-120.374 21.6633 -45.923 15.1369 9.35 8.70305C11.2819 8.47816 142.601 -6.33441 137.318 8.70305C131.069 26.4886 120.346 42.4356 113.539 60.0152C69.9017 172.716 43.345 292.045 14.0432 408.876C-53.6992 678.977 -122.021 948.755 -194.335 1217.67" stroke="#CDDE00" stroke-width="3" stroke-linecap="round"/>
</svg>
