<svg width="280" height="173" viewBox="0 0 280 173" fill="none" xmlns="http://www.w3.org/2000/svg">
<path d="M30.3234 21.6503H41.8216C40.2636 32.6205 31.2763 36.7151 21.4262 36.7151C10.6491 36.7151 0.824768 31.8609 0.824768 18.4442C0.824768 5.0275 10.5976 0.211914 21.3747 0.211914C31.2248 0.211914 40.2121 4.31932 41.7701 15.2896H30.3234C29.2805 10.8345 26.7826 8.22072 21.4262 8.22072C14.9883 8.22072 12.1169 12.2766 12.1169 18.4442C12.1169 24.6117 15.0398 28.7449 21.4262 28.7449C26.7311 28.7063 29.229 26.1053 30.3234 21.6503Z" fill="#EBEBEB"/>
<path d="M78.2346 35.9683H45.5427V0.907227H56.7576V27.9466H78.2346V35.9683Z" fill="#EBEBEB"/>
<path d="M114.699 35.9683H82.007V0.907227H93.2219V27.9466H114.699V35.9683Z" fill="#EBEBEB"/>
<path d="M157.074 25.6547C157.074 33.715 151.923 35.9554 141.622 35.9554H118.472V0.907227H142.55C150.494 0.907227 155.837 2.76136 155.837 9.92035C155.837 14.0278 153.661 16.281 150.121 17.4785C154.37 18.6888 157.074 21.0966 157.074 25.6547ZM129.687 9.03192V14.6844H141.416C144.211 14.6844 144.919 13.3968 144.919 11.7745C144.919 10.1521 144.211 9.03192 141.416 9.03192H129.687ZM145.717 24.6761C145.717 23.028 144.919 21.8692 141.983 21.8692H129.687V27.9337H141.983C145.009 27.908 145.717 26.5045 145.717 24.6761Z" fill="#EBEBEB"/>
<path d="M180.856 24.5989H172.061V35.9683H160.846V0.907227H184.409C193.538 0.907227 198.573 5.37516 198.573 12.4955C198.707 14.7393 198.125 16.9677 196.91 18.8587C195.695 20.7497 193.91 22.2053 191.813 23.0151L199.667 35.891H187.603L180.856 24.5989ZM172.061 16.5901H182.8C186.109 16.5901 187.152 14.7874 187.152 12.5342C187.152 10.2809 185.774 9.03192 182.8 9.03192H172.061V16.5901Z" fill="#EBEBEB"/>
<path d="M237.329 9.03192H224.749V35.9683H213.547V9.03192H201.006V0.907227H237.291L237.329 9.03192Z" fill="#EBEBEB"/>
<path d="M279.227 0.907227V35.9683H267.356L252.317 15.1351V35.9683H241.102V0.907227H252.973L268.025 21.7919V0.907227H279.227Z" fill="#EBEBEB"/>
<path d="M17.7307 168.963H8.61454L7.42996 172.028H0.70874L9.47722 152.147H16.868L25.6107 172.041H18.941L17.7307 168.963ZM15.9796 164.354L13.1726 157.156L10.3914 164.354H15.9796Z" fill="#EBEBEB"/>
<path d="M45.594 172.028H26.9626V152.147H33.4005V167.47H45.6455L45.594 172.028Z" fill="#EBEBEB"/>
<path d="M66.3759 172.028H47.7573V152.147H54.1953V167.47H66.3759V172.028Z" fill="#EBEBEB"/>
<path d="M94.4452 172.028H75.5691V152.147H94.1748V156.744H81.9555V159.538H93.4151V164.135H81.9555V167.47H94.4452V172.028Z" fill="#EBEBEB"/>
<path d="M119.386 152.147L110.656 165.023V172.066H104.218V165.023L95.4883 152.147H102.583L107.411 160.079L112.304 152.147H119.386Z" fill="#EBEBEB"/>
<path d="M139.627 172.028H120.738V152.147H139.356V156.744H127.137V159.538H138.597V164.135H127.137V167.47H139.627V172.028Z" fill="#EBEBEB"/>
<path d="M163.653 165.719C163.653 170.496 159.79 172.453 152.387 172.453C144.404 172.453 141.249 169.762 141.249 165.577H147.932C147.932 167.431 150.095 167.933 152.734 167.933C155.374 167.933 156.777 167.534 156.777 166.427C156.777 165.139 154.949 165.139 149.528 164.302C143.721 163.362 141.674 162.075 141.674 158.096C141.674 154.117 144.726 151.735 152.052 151.735C160.074 151.735 162.443 154.774 162.443 158.173H156.005C156.005 156.808 154.498 156.216 152.039 156.216C149.58 156.216 148.099 156.615 148.099 157.748C148.099 159.113 150.455 159.229 153.687 159.564C159.533 160.259 163.653 160.684 163.653 165.719Z" fill="#EBEBEB"/>
<path d="M196.59 162.075C196.59 169.697 190.409 172.453 184.293 172.453C178.177 172.453 172.023 169.697 172.023 162.075C172.023 154.452 178.164 151.774 184.293 151.774C190.422 151.774 196.59 154.491 196.59 162.075ZM190.152 162.075C190.152 158.47 188.079 156.281 184.358 156.281C183.577 156.205 182.79 156.303 182.052 156.567C181.314 156.831 180.644 157.256 180.089 157.809C179.534 158.363 179.108 159.033 178.842 159.77C178.576 160.507 178.477 161.294 178.551 162.075C178.551 165.719 180.662 167.908 184.358 167.908C188.053 167.908 190.087 165.719 190.087 162.075H190.152Z" fill="#EBEBEB"/>
<path d="M220.487 152.147V172.041H213.715L205.139 160.221V172.041H198.701V152.147H205.461L214.049 163.993V152.147H220.487Z" fill="#EBEBEB"/>
<path d="M257.712 152.147V172.041H251.274V159.165L246.754 172.041H241.089L236.556 159.165V172.041H230.118V152.147H239.453L243.883 165.216L248.376 152.147H257.712Z" fill="#EBEBEB"/>
<path d="M279.292 172.028H260.416V152.147H279.021V156.744H266.802V159.538H278.262V164.135H266.802V167.47H279.292V172.028Z" fill="#EBEBEB"/>
<path d="M203.556 89.3645C204.681 89.3036 205.74 88.8138 206.514 87.9959C207.289 87.178 207.721 86.0941 207.721 84.9674C207.721 83.8407 207.289 82.7569 206.514 81.939C205.74 81.121 204.681 80.6312 203.556 80.5703L202.268 80.7763C201.244 81.067 200.361 81.7208 199.784 82.6154C199.208 83.51 198.976 84.5841 199.134 85.6368C199.292 86.6895 199.828 87.6486 200.642 88.3347C201.456 89.0208 202.491 89.3869 203.556 89.3645Z" fill="#EBEBEB"/>
<path d="M209.749 105.588C204.309 105.586 199.089 103.447 195.211 99.6317C191.334 95.8169 189.11 90.6316 189.019 85.1929L174.533 91.5278V95.8799L192.328 103.605C197.81 106.002 203.728 107.239 209.71 107.239C215.693 107.239 221.611 106.002 227.093 103.605L244.9 95.8799V91.5278L230.466 85.1929C230.382 90.6315 228.162 95.8187 224.286 99.6346C220.409 103.45 215.188 105.589 209.749 105.588Z" fill="#EBEBEB"/>
<path d="M140 48.3936V138.396H279.292V48.3936H140ZM259.823 89.3647V105.395L227.118 119.687C221.637 122.084 215.719 123.321 209.736 123.321C203.753 123.321 197.835 122.084 192.354 119.687L159.739 105.421H159.674V83.1842V82.0254L192.366 67.7331C197.847 65.3334 203.765 64.0928 209.749 64.0893C215.728 64.0942 221.641 65.3348 227.118 67.7331L259.823 82.0254V89.3647Z" fill="#EBEBEB"/>
<path d="M140.18 56.8658V129.872H9.72187V56.8658H140.18ZM149.194 48.3677H0.70874V138.37H149.245V48.3934L149.194 48.3677Z" fill="#EBEBEB"/>
<path d="M27.8769 130.052H15.6706L8.96224 126.769V130.052C8.68914 129.287 8.51182 128.492 8.43433 127.683C8.43433 103.76 8.43433 79.8021 8.43433 55.81H32.6153C67.6549 55.81 102.694 55.81 137.734 55.81C138.507 55.81 140.309 54.6125 140.168 56.9173C130.73 60.0719 121.292 63.2522 111.841 66.3682C106.587 68.085 101.317 69.7589 96.029 71.3898C87.4794 73.965 78.8397 76.3857 70.3803 79.2312C64.3565 81.1486 58.482 83.507 52.8047 86.2872C46.0191 89.738 45.4911 96.0987 51.6072 100.579C56.2394 104.052 61.2605 106.973 66.569 109.284C78.1778 113.996 90.4762 116.788 102.982 117.55C110.102 118.078 117.313 117.859 124.472 117.679C129.712 117.55 134.94 116.919 140.168 116.507V121.245C135.017 121.825 129.751 122.7 124.523 122.945C98.6428 124.232 73.6894 120.292 49.9848 109.953C42.27 106.826 35.2863 102.135 29.4735 96.1759C24.3232 90.7165 25.2502 85.9524 32.0487 82.7077C34.7366 81.3292 37.5471 80.2041 40.4438 79.3471C49.0964 77.0552 57.8906 75.1882 66.5432 72.9092C82.1102 68.7374 97.6385 64.3853 113.154 60.0333C116.077 59.2092 118.871 57.986 121.729 56.9559L121.575 56.1576C114.828 56.4795 107.952 56.1576 101.373 57.2907C92.9646 58.8101 84.8914 61.9518 76.5221 63.7287C64.599 66.3038 52.5471 68.2996 40.4696 70.3984C30.774 72.0851 20.9883 73.6045 11.2155 75.1367C10.8715 75.1382 10.5321 75.2154 10.2213 75.3628C9.91056 75.5103 9.63605 75.7243 9.4173 75.9898C9.19854 76.2552 9.04091 76.5656 8.95559 76.8988C8.87026 77.232 8.85935 77.58 8.92361 77.9179C9.03949 81.9995 9.11675 86.0941 8.92361 90.1757C8.83677 91.1954 9.01386 92.2201 9.43781 93.1515C9.86177 94.0828 10.5183 94.8894 11.3443 95.4935C20.3019 102.905 30.3468 108.894 41.1262 113.249C59.8296 121.232 79.6914 126.166 99.9562 127.863C113.362 129.085 126.867 128.652 140.168 126.576V130.078H77.3075C76.8683 129.86 76.4118 129.679 75.9426 129.537C59.3747 126.082 43.2565 120.743 27.9027 113.623C21.5935 110.636 15.4646 107.314 8.96224 103.992C9.03107 104.849 9.03107 105.71 8.96224 106.567C8.43433 109.387 9.5159 110.945 12.2971 112.232C18.5805 114.91 24.5678 118.194 30.9028 120.73C39.3493 124.104 48.0019 127.001 56.5644 130.104H41.9117L9.091 116.378C8.88498 122.443 8.15106 120.872 13.4817 123.447C18.2329 125.726 23.0742 127.851 27.8769 130.052ZM78.1959 56.6598H9.11675V64.0248C32.5251 64.1664 55.5086 62.1449 78.1959 56.6469V56.6598Z" fill="#EBEBEB"/>
<path d="M140.168 110.185C135.558 110.777 130.974 111.627 126.339 111.897C113.012 112.67 99.763 111.962 87.0545 107.726C82.4931 106.23 78.1603 104.111 74.1786 101.429C68.9123 97.7984 69.0282 93.1631 74.2816 89.4419C77.325 87.1773 80.6489 85.3163 84.1703 83.9053C95.2693 79.7335 106.51 75.9222 117.648 71.9822L140.116 64.0764V72.832C139.516 72.8669 138.921 72.9618 138.339 73.1153C130.163 76.1283 121.845 78.8966 113.875 82.3216C108.875 84.5018 104.111 87.1898 99.66 90.3432C95.4753 93.3047 96.132 97.5795 100.703 99.8714C108.145 103.58 116.154 104.713 124.459 104.623C129.699 104.558 134.927 104.03 140.168 103.721V110.185Z" fill="#EBEBEB"/>
</svg>
